<svg width="38" height="38" viewBox="0 0 38 38" fill="none" xmlns="http://www.w3.org/2000/svg">
<path d="M4.3418 22.5773V29.2014C4.39746 32.6785 10.1197 35.4914 19 35.4914C27.8803 35.4914 33.5988 32.6785 33.6582 29.2014V22.5773H4.3418Z" fill="#00BCFF"/>
<path d="M33.6582 22.5514C33.6582 26.24 27.9137 29.2311 19 29.2311C10.0863 29.2311 4.3418 26.24 4.3418 22.5514C4.3418 18.8627 10.0863 15.8717 19 15.8717C27.9137 15.8717 33.6582 18.859 33.6582 22.5514Z" fill="white"/>
<path d="M4.3418 15.8977V21.7795C4.39746 25.2566 10.1197 28.4406 19 28.4406C27.8803 28.4406 33.5988 25.2566 33.6582 21.7795V15.8977H4.3418Z" fill="#00BCFF"/>
<path d="M33.6582 15.8717C33.6582 19.5604 27.9137 22.5514 19 22.5514C10.0863 22.5514 4.3418 19.5604 4.3418 15.8717C4.3418 12.183 10.0863 9.19199 19 9.19199C27.9137 9.19199 33.6582 12.1793 33.6582 15.8717Z" fill="white"/>
<path d="M4.3418 9.21797V15.0998C4.39746 18.577 10.1197 21.7609 19 21.7609C27.8803 21.7609 33.5988 18.577 33.6582 15.0998V9.21797H4.3418Z" fill="#00BCFF"/>
<path d="M33.6582 9.19199C33.6582 12.8807 27.9137 15.8717 19 15.8717C10.0863 15.8717 4.3418 12.8807 4.3418 9.19199C4.3418 5.50332 10.0863 2.51231 19 2.51231C27.9137 2.51231 33.6582 5.49961 33.6582 9.19199Z" fill="#74D4FF"/>
</svg>
